<?xml version="1.0" encoding="UTF-8" standalone="no"?>
<!-- Created with Inkscape (http://www.inkscape.org/) -->

<svg
   xmlns:dc="http://purl.org/dc/elements/1.1/"
   xmlns:cc="http://creativecommons.org/ns#"
   xmlns:rdf="http://www.w3.org/1999/02/22-rdf-syntax-ns#"
   xmlns:svg="http://www.w3.org/2000/svg"
   xmlns="http://www.w3.org/2000/svg"
   xmlns:sodipodi="http://sodipodi.sourceforge.net/DTD/sodipodi-0.dtd"
   xmlns:inkscape="http://www.inkscape.org/namespaces/inkscape"
   width="320"
   height="110"
   viewBox="0 0 84.66667 29.104168"
   version="1.1"
   id="svg8"
   style="enable-background:new"
   inkscape:version="0.92.4 (5da689c313, 2019-01-14)"
   sodipodi:docname="mersenne-prime-foundry-min.svg">
  <defs
     id="defs2">
    <filter
       inkscape:collect="always"
       style="color-interpolation-filters:sRGB"
       id="filter847">
      <feBlend
         inkscape:collect="always"
         mode="normal"
         in2="BackgroundImage"
         id="feBlend849" />
    </filter>
  </defs>
  <sodipodi:namedview
     id="base"
     pagecolor="#ffffff"
     bordercolor="#666666"
     borderopacity="1.0"
     inkscape:pageopacity="0.0"
     inkscape:pageshadow="2"
     inkscape:zoom="2.3422912"
     inkscape:cx="197.44782"
     inkscape:cy="10.501717"
     inkscape:document-units="mm"
     inkscape:current-layer="layer2"
     showgrid="true"
     inkscape:window-width="1827"
     inkscape:window-height="1051"
     inkscape:window-x="84"
     inkscape:window-y="-9"
     inkscape:window-maximized="1"
     units="px"
     objecttolerance="1"
     inkscape:snap-bbox="true"
     inkscape:snap-others="true"
     inkscape:snap-nodes="true"
     inkscape:snap-global="true">
    <inkscape:grid
       type="xygrid"
       id="grid4556"
       spacingx="2.6458335"
       spacingy="2.6458335" />
  </sodipodi:namedview>
  <metadata
     id="metadata5">
    <rdf:RDF>
      <cc:Work
         rdf:about="">
        <dc:format>image/svg+xml</dc:format>
        <dc:type
           rdf:resource="http://purl.org/dc/dcmitype/StillImage" />
        <dc:title></dc:title>
      </cc:Work>
    </rdf:RDF>
  </metadata>
  <g
     inkscape:label="Layer 1"
     inkscape:groupmode="layer"
     id="layer1"
     style="filter:url(#filter847)"
     transform="translate(0,-267.89583)">
    <g
       id="g4570"
       transform="translate(11.112501,-2.1166708)">
      <path
         inkscape:connector-curvature="0"
         id="path4558"
         d="m 15.875001,291.70833 h 5.291667 v -13.22917 h -5.291667 z"
         style="fill:#000000;stroke:#000000;stroke-width:0.26458332px;stroke-linecap:butt;stroke-linejoin:miter;stroke-opacity:1" />
      <path
         inkscape:connector-curvature="0"
         id="path4560"
         d="m 13.229168,291.70833 5.291667,-13.22917 h -2.645834 l -5.291667,13.22917 z"
         style="fill:#000000;stroke:#000000;stroke-width:0.26458332px;stroke-linecap:butt;stroke-linejoin:miter;stroke-opacity:1" />
      <path
         inkscape:connector-curvature="0"
         id="path4562"
         d="m 13.229168,278.47916 v 13.22917 H 7.9375009 v -13.22917 z"
         style="fill:#000000;stroke:#000000;stroke-width:0.26458332px;stroke-linecap:butt;stroke-linejoin:miter;stroke-opacity:1" />
      <path
         inkscape:connector-curvature="0"
         id="path4564"
         d="M 10.583334,278.47916 5.2916676,291.70833 H 2.645834 l 5.2916669,-13.22917 z"
         style="fill:#000000;stroke:#000000;stroke-width:0.26458332px;stroke-linecap:butt;stroke-linejoin:miter;stroke-opacity:1" />
    </g>
  </g>
  <g
     inkscape:groupmode="layer"
     id="layer3"
     inkscape:label="Layer 3"
     transform="translate(0,2.6458333)">
    <path
       style="fill:#1a1a1a;stroke:#1a1a1a;stroke-width:0.26458332px;stroke-linecap:butt;stroke-linejoin:miter;stroke-opacity:1"
       d="m 16.404167,19.05 v 5.291666 h 15.875 A 2.6458336,2.6458336 0 0 0 34.925,21.695833 2.6458336,2.6458336 0 0 0 32.279167,19.05 Z"
       id="path4578"
       inkscape:connector-curvature="0" />
  </g>
  <g
     inkscape:groupmode="layer"
     id="layer2"
     inkscape:label="Layer 2"
     transform="translate(0,2.6458333)">
    <path
       style="fill:#333333;stroke:#333333;stroke-width:0.26458332px;stroke-linecap:butt;stroke-linejoin:miter;stroke-opacity:1"
       d="M 8.4666679,24.341666 H 16.404168 V 3.1749984 h 5.291667 V -2.1166685 H 11.112501 L 0.52916753,19.049999 v 5.291667 z"
       id="path4573"
       inkscape:connector-curvature="0" />
    <path
       style="opacity:1;fill:#4d4d4d;fill-opacity:1;stroke:#4d4d4d;stroke-width:0.26499999;stroke-linecap:round;stroke-linejoin:round;stroke-miterlimit:4;stroke-dasharray:none"
       d="M 5.8208343,3.1749983 A 5.2916669,5.2916669 0 0 0 0.52916773,8.4666649 5.2916669,5.2916669 0 0 0 5.8208343,13.758332 5.2916669,5.2916669 0 0 0 11.112501,8.4666649 5.2916669,5.2916669 0 0 0 5.8208343,3.1749983 Z m 0,2.6458333 A 2.6458336,2.6458336 0 0 1 8.4666676,8.4666649 2.6458336,2.6458336 0 0 1 5.8208343,11.112497 2.6458336,2.6458336 0 0 1 3.175001,8.4666649 2.6458336,2.6458336 0 0 1 5.8208343,5.8208316 Z"
       id="path4602"
       inkscape:connector-curvature="0" />
    <g
       aria-label="Mersenne Prime Foundry"
       style="font-style:normal;font-variant:normal;font-weight:normal;font-stretch:normal;font-size:9.98166847px;line-height:1;font-family:Consolas;-inkscape-font-specification:Consolas;text-align:start;letter-spacing:0px;word-spacing:0px;text-anchor:start;fill:#000000;fill-opacity:1;stroke:#000000;stroke-width:0.24954168"
       id="text4619"
       transform="translate(0.52916733,-2.1166671)">
      <path
         d="m 44.312301,6.4275293 h -0.848052 l -0.12672,-3.9721971 -0.05361,-1.5255187 -0.297305,0.8870428 -0.940655,2.534408 h -0.599485 l -0.896791,-2.4369308 -0.297305,-0.98452 -0.0195,1.5937527 -0.112099,3.9039631 h -0.818808 l 0.311927,-6.37013702 h 1.028384 l 0.8578,2.39793992 0.27781,0.809061 0.268063,-0.809061 0.901664,-2.39793992 h 1.057628 z"
         style="line-height:1;text-align:start;text-anchor:start;fill:#000000;stroke:#000000;stroke-width:0.24954168"
         id="path4625"
         inkscape:connector-curvature="0" />
      <path
         d="m 49.473721,3.7225362 q 0,0.1803328 -0.0049,0.3021794 -0.0049,0.1218465 -0.01462,0.2290715 h -3.436072 q 0,0.7505747 0.419152,1.1551052 0.419152,0.3996566 1.208718,0.3996566 0.21445,0 0.428899,-0.014622 0.21445,-0.019495 0.414279,-0.048739 0.199828,-0.029243 0.380161,-0.06336 0.185207,-0.038991 0.34117,-0.082856 v 0.6969622 q -0.346044,0.097477 -0.784692,0.1559635 -0.433773,0.06336 -0.901664,0.06336 -0.628728,0 -1.081997,-0.1705851 Q 45.98891,6.1740885 45.696478,5.8524137 45.40892,5.5258649 45.267578,5.0579742 45.13111,4.5852097 45.13111,3.9905986 q 0,-0.5166294 0.146216,-0.9747724 0.15109,-0.4630168 0.433774,-0.809061 0.287557,-0.350918 0.701836,-0.5556202 0.414278,-0.2047022 0.940655,-0.2047022 0.511755,0 0.906538,0.1608375 0.394783,0.1608374 0.662845,0.4581429 0.272937,0.2924317 0.409405,0.7164577 0.141342,0.4191521 0.141342,0.9406553 z M 48.591552,3.6006896 Q 48.606173,3.2741409 48.528192,3.0060785 48.45021,2.7331423 48.284498,2.5381878 48.123661,2.3432333 47.879968,2.2360084 47.636275,2.1239096 47.3146,2.1239096 q -0.27781,0 -0.506882,0.1072249 -0.229071,0.107225 -0.394782,0.3021794 -0.165712,0.1949545 -0.268063,0.4678908 -0.102351,0.2729362 -0.12672,0.5994849 z"
         style="line-height:1;text-align:start;text-anchor:start;fill:#000000;stroke:#000000;stroke-width:0.24954168"
         id="path4627"
         inkscape:connector-curvature="0" />
      <path
         d="m 51.03823,1.5341723 h 0.774944 l 0.02437,0.9016644 q 0.433773,-0.5215032 0.852925,-0.7554485 0.424026,-0.2339454 0.852926,-0.2339454 0.760323,0 1.150232,0.49226 0.394782,0.4922601 0.365539,1.4621585 h -0.857799 q 0.01462,-0.6433497 -0.190081,-0.9309076 -0.199828,-0.2924316 -0.589737,-0.2924316 -0.170585,0 -0.346044,0.06336 -0.170586,0.058486 -0.355792,0.1949544 Q 52.53938,2.567431 52.334678,2.777007 52.129975,2.9865831 51.89603,3.2838886 v 3.1436407 h -0.8578 z"
         style="line-height:1;text-align:start;text-anchor:start;fill:#000000;stroke:#000000;stroke-width:0.24954168"
         id="path4629"
         inkscape:connector-curvature="0" />
      <path
         d="m 60.210839,5.0920913 q 0,0.2583146 -0.08773,0.4630168 -0.08773,0.2047022 -0.238819,0.3655396 -0.15109,0.1559636 -0.350918,0.2680624 -0.199828,0.1120988 -0.4289,0.1852068 -0.224197,0.073108 -0.463017,0.1072249 -0.238819,0.034117 -0.46789,0.034117 -0.497134,0 -0.916286,-0.043865 -0.414278,-0.043865 -0.813935,-0.141342 V 5.5502343 q 0.4289,0.1218465 0.852926,0.1852067 0.424026,0.06336 0.843178,0.06336 0.609232,0 0.901664,-0.1657113 0.292432,-0.1657113 0.292432,-0.4727646 0,-0.1315942 -0.04874,-0.2339453 Q 59.24094,4.819155 59.119094,4.7265517 58.997247,4.6290744 58.738933,4.5267233 58.485492,4.4243722 58.041971,4.292778 57.710548,4.1953007 57.427864,4.0734542 57.150054,3.9467338 56.945352,3.7761486 56.740649,3.6055635 56.623677,3.376492 56.506704,3.1474205 56.506704,2.8354934 q 0,-0.2047022 0.0926,-0.4483953 0.09748,-0.2436931 0.326549,-0.4532691 0.229072,-0.2095761 0.618981,-0.3460442 0.389909,-0.141342 0.974772,-0.141342 0.287558,0 0.638476,0.034117 0.350918,0.029243 0.731079,0.1072249 v 0.7554485 q -0.399657,-0.097477 -0.760322,-0.1413419 -0.355792,-0.048739 -0.618981,-0.048739 -0.316801,0 -0.536125,0.048739 -0.214449,0.048739 -0.350918,0.1364681 -0.131594,0.082856 -0.19008,0.1998283 -0.05849,0.1120988 -0.05849,0.2436931 0,0.1315943 0.04874,0.2388192 0.05361,0.107225 0.190081,0.2095761 0.141342,0.097477 0.389909,0.1998283 0.248567,0.097477 0.648223,0.2144499 0.433774,0.1267204 0.731079,0.2680624 0.297306,0.1364681 0.482513,0.3070532 0.185206,0.1705852 0.263188,0.3850351 0.08286,0.2144499 0.08286,0.4873862 z"
         style="line-height:1;text-align:start;text-anchor:start;fill:#000000;stroke:#000000;stroke-width:0.24954168"
         id="path4631"
         inkscape:connector-curvature="0" />
      <path
         d="m 65.966869,3.7225362 q 0,0.1803328 -0.0049,0.3021794 -0.0049,0.1218465 -0.01462,0.2290715 h -3.436072 q 0,0.7505747 0.419152,1.1551052 0.419152,0.3996566 1.208717,0.3996566 0.21445,0 0.4289,-0.014622 0.21445,-0.019495 0.414279,-0.048739 0.199828,-0.029243 0.380161,-0.06336 0.185206,-0.038991 0.34117,-0.082856 v 0.6969622 q -0.346044,0.097477 -0.784692,0.1559635 -0.433773,0.06336 -0.901664,0.06336 -0.628728,0 -1.081997,-0.1705851 -0.453269,-0.1705852 -0.745701,-0.49226 -0.287558,-0.3265488 -0.4289,-0.7944395 -0.136468,-0.4727645 -0.136468,-1.0673756 0,-0.5166294 0.146216,-0.9747724 0.151089,-0.4630168 0.433773,-0.809061 0.287558,-0.350918 0.701837,-0.5556202 0.414278,-0.2047022 0.940655,-0.2047022 0.511755,0 0.906538,0.1608375 0.394783,0.1608374 0.662845,0.4581429 0.272936,0.2924317 0.409405,0.7164577 0.141342,0.4191521 0.141342,0.9406553 z M 65.0847,3.6006896 Q 65.099321,3.2741409 65.021339,3.0060785 64.943358,2.7331423 64.777646,2.5381878 64.616809,2.3432333 64.373116,2.2360084 64.129423,2.1239096 63.807748,2.1239096 q -0.27781,0 -0.506882,0.1072249 -0.229071,0.107225 -0.394782,0.3021794 -0.165712,0.1949545 -0.268063,0.4678908 -0.102351,0.2729362 -0.12672,0.5994849 z"
         style="line-height:1;text-align:start;text-anchor:start;fill:#000000;stroke:#000000;stroke-width:0.24954168"
         id="path4633"
         inkscape:connector-curvature="0" />
      <path
         d="m 67.331549,1.5341723 h 0.755449 l 0.03412,0.7895656 q 0.214449,-0.2534408 0.414278,-0.4191521 0.199828,-0.1705851 0.389909,-0.2729362 0.194954,-0.1023511 0.394782,-0.141342 0.199829,-0.043865 0.414279,-0.043865 0.755448,0 1.140483,0.4483953 0.389909,0.4435214 0.389909,1.3403119 V 6.4275293 H 70.416703 V 3.3033841 q 0,-0.5751157 -0.21445,-0.8480519 -0.214449,-0.2778101 -0.638475,-0.2778101 -0.155964,0 -0.307054,0.048739 -0.146216,0.043865 -0.307053,0.1608374 -0.160837,0.1120988 -0.350918,0.3070533 -0.185207,0.1949544 -0.419152,0.4873861 v 3.2459918 h -0.848052 z"
         style="line-height:1;text-align:start;text-anchor:start;fill:#000000;stroke:#000000;stroke-width:0.24954168"
         id="path4635"
         inkscape:connector-curvature="0" />
      <path
         d="m 72.829268,1.5341723 h 0.755448 l 0.03412,0.7895656 q 0.21445,-0.2534408 0.414279,-0.4191521 0.199828,-0.1705851 0.389908,-0.2729362 0.194955,-0.1023511 0.394783,-0.141342 0.199829,-0.043865 0.414279,-0.043865 0.755448,0 1.140483,0.4483953 0.389909,0.4435214 0.389909,1.3403119 V 6.4275293 H 75.914422 V 3.3033841 q 0,-0.5751157 -0.21445,-0.8480519 -0.21445,-0.2778101 -0.638476,-0.2778101 -0.155963,0 -0.307053,0.048739 -0.146216,0.043865 -0.307053,0.1608374 -0.160838,0.1120988 -0.350918,0.3070533 -0.185207,0.1949544 -0.419152,0.4873861 v 3.2459918 h -0.848052 z"
         style="line-height:1;text-align:start;text-anchor:start;fill:#000000;stroke:#000000;stroke-width:0.24954168"
         id="path4637"
         inkscape:connector-curvature="0" />
      <path
         d="m 82.460017,3.7225362 q 0,0.1803328 -0.0049,0.3021794 -0.0049,0.1218465 -0.01462,0.2290715 H 79.00445 q 0,0.7505747 0.419152,1.1551052 0.419152,0.3996566 1.208717,0.3996566 0.21445,0 0.4289,-0.014622 0.21445,-0.019495 0.414278,-0.048739 0.199829,-0.029243 0.380162,-0.06336 0.185206,-0.038991 0.34117,-0.082856 v 0.6969622 q -0.346044,0.097477 -0.784692,0.1559635 -0.433774,0.06336 -0.901664,0.06336 -0.628728,0 -1.081998,-0.1705851 -0.453269,-0.1705852 -0.7457,-0.49226 -0.287558,-0.3265488 -0.4289,-0.7944395 -0.136468,-0.4727645 -0.136468,-1.0673756 0,-0.5166294 0.146216,-0.9747724 0.151089,-0.4630168 0.433773,-0.809061 0.287558,-0.350918 0.701836,-0.5556202 0.414279,-0.2047022 0.940656,-0.2047022 0.511755,0 0.906538,0.1608375 0.394783,0.1608374 0.662845,0.4581429 0.272936,0.2924317 0.409404,0.7164577 0.141342,0.4191521 0.141342,0.9406553 z M 81.577848,3.6006896 Q 81.59247,3.2741409 81.514488,3.0060785 81.436506,2.7331423 81.270795,2.5381878 81.109958,2.3432333 80.866265,2.2360084 80.622572,2.1239096 80.300897,2.1239096 q -0.27781,0 -0.506882,0.1072249 -0.229071,0.107225 -0.394783,0.3021794 -0.165711,0.1949545 -0.268062,0.4678908 -0.102351,0.2729362 -0.12672,0.5994849 z"
         style="line-height:1;text-align:start;text-anchor:start;fill:#000000;stroke:#000000;stroke-width:0.24954168"
         id="path4639"
         inkscape:connector-curvature="0" />
      <path
         d="m 44.014996,11.988605 q 0,0.389909 -0.146216,0.774944 -0.146216,0.380162 -0.453269,0.682341 -0.307054,0.302179 -0.784692,0.49226 -0.477638,0.185207 -1.140484,0.185207 H 40.70077 v 2.285841 h -0.867548 v -6.370137 h 1.793581 q 0.472765,0 0.906539,0.107225 0.433773,0.102351 0.760322,0.336296 0.331423,0.233946 0.526377,0.604359 0.194955,0.370413 0.194955,0.901664 z m -0.901665,0.03899 q 0,-0.614106 -0.40453,-0.940655 -0.399657,-0.326549 -1.120988,-0.326549 H 40.70077 v 2.622138 h 0.809061 q 0.77007,0 1.184348,-0.336297 0.419152,-0.336296 0.419152,-1.018637 z"
         style="line-height:1;text-align:start;text-anchor:start;fill:#000000;stroke:#000000;stroke-width:0.24954168"
         id="path4641"
         inkscape:connector-curvature="0" />
      <path
         d="m 45.540514,11.515841 h 0.774944 l 0.02437,0.901664 q 0.433773,-0.521503 0.852926,-0.755448 0.424025,-0.233946 0.852925,-0.233946 0.760323,0 1.150232,0.49226 0.394782,0.49226 0.365539,1.462159 h -0.857799 q 0.01462,-0.64335 -0.190081,-0.930908 -0.199828,-0.292431 -0.589737,-0.292431 -0.170585,0 -0.346044,0.06336 -0.170586,0.05849 -0.355792,0.194954 -0.180333,0.131594 -0.385035,0.34117 -0.204703,0.209577 -0.438648,0.506882 v 3.143641 h -0.8578 z"
         style="line-height:1;text-align:start;text-anchor:start;fill:#000000;stroke:#000000;stroke-width:0.24954168"
         id="path4643"
         inkscape:connector-curvature="0" />
      <path
         d="m 52.505263,12.217677 h -1.447537 v -0.701836 h 2.305336 v 4.186647 h 1.457285 v 0.70671 h -3.923459 v -0.70671 h 1.608375 z m 0.297305,-2.7537319 q 0.141342,0 0.263189,0.053612 0.121846,0.048739 0.209576,0.1413419 0.0926,0.092603 0.141342,0.21445 0.05361,0.1169726 0.05361,0.258314 0,0.136468 -0.05361,0.258315 -0.04874,0.121846 -0.141342,0.21445 -0.08773,0.0926 -0.209576,0.146216 -0.121847,0.04874 -0.263189,0.04874 -0.141342,0 -0.263188,-0.04874 -0.121847,-0.05361 -0.21445,-0.146216 -0.08773,-0.0926 -0.141342,-0.21445 -0.04874,-0.121847 -0.04874,-0.258315 0,-0.1413414 0.04874,-0.258314 0.05361,-0.1218466 0.141342,-0.21445 0.0926,-0.092603 0.21445,-0.1413419 0.121846,-0.053612 0.263188,-0.053612 z"
         style="line-height:1;text-align:start;text-anchor:start;fill:#000000;stroke:#000000;stroke-width:0.24954168"
         id="path4645"
         inkscape:connector-curvature="0" />
      <path
         d="m 59.825804,16.409198 v -3.514054 q 0,-0.229072 -0.0195,-0.375288 -0.01462,-0.146216 -0.05361,-0.229071 -0.03412,-0.08773 -0.0926,-0.121847 -0.05361,-0.03412 -0.136469,-0.03412 -0.09748,0 -0.180332,0.05849 -0.08286,0.05849 -0.180333,0.19008 -0.0926,0.131594 -0.209576,0.350918 -0.112099,0.21445 -0.268063,0.531251 v 3.143641 h -0.774944 v -3.421451 q 0,-0.268062 -0.01949,-0.433774 -0.01462,-0.165711 -0.05361,-0.258314 -0.03412,-0.0926 -0.0926,-0.126721 -0.05849,-0.03412 -0.141342,-0.03412 -0.08773,0 -0.165711,0.04874 -0.07798,0.04874 -0.175459,0.175459 -0.0926,0.12672 -0.209576,0.346044 -0.116973,0.219324 -0.27781,0.560494 v 3.143641 h -0.779818 v -4.893357 h 0.648223 l 0.03899,0.930907 q 0.126721,-0.27781 0.243693,-0.472764 0.121847,-0.194955 0.248567,-0.311927 0.126721,-0.121847 0.268063,-0.175459 0.146215,-0.05849 0.321674,-0.05849 0.394783,0 0.599485,0.258315 0.204703,0.258315 0.204703,0.799313 0.116972,-0.253441 0.229071,-0.448395 0.112099,-0.199828 0.238819,-0.331423 0.131595,-0.136468 0.287558,-0.204702 0.155964,-0.07311 0.360666,-0.07311 0.92116,0 0.92116,1.418294 v 3.562793 z"
         style="line-height:1;text-align:start;text-anchor:start;fill:#000000;stroke:#000000;stroke-width:0.24954168"
         id="path4647"
         inkscape:connector-curvature="0" />
      <path
         d="m 65.966869,13.704205 q 0,0.180333 -0.0049,0.302179 -0.0049,0.121847 -0.01462,0.229072 h -3.436072 q 0,0.750574 0.419152,1.155105 0.419152,0.399656 1.208717,0.399656 0.21445,0 0.4289,-0.01462 0.21445,-0.0195 0.414279,-0.04874 0.199828,-0.02924 0.380161,-0.06336 0.185206,-0.03899 0.34117,-0.08286 V 16.2776 q -0.346044,0.09748 -0.784692,0.155963 -0.433773,0.06336 -0.901664,0.06336 -0.628728,0 -1.081997,-0.170585 -0.453269,-0.170585 -0.745701,-0.49226 -0.287558,-0.326549 -0.4289,-0.794439 -0.136468,-0.472765 -0.136468,-1.067376 0,-0.516629 0.146216,-0.974772 0.151089,-0.463017 0.433773,-0.809061 0.287558,-0.350918 0.701837,-0.555621 0.414278,-0.204702 0.940655,-0.204702 0.511755,0 0.906538,0.160838 0.394783,0.160837 0.662845,0.458143 0.272936,0.292431 0.409405,0.716457 0.141342,0.419152 0.141342,0.940656 z M 65.0847,13.582358 q 0.01462,-0.326549 -0.06336,-0.594611 -0.07798,-0.272936 -0.243693,-0.467891 -0.160837,-0.194954 -0.40453,-0.302179 -0.243693,-0.112099 -0.565368,-0.112099 -0.27781,0 -0.506882,0.107225 -0.229071,0.107225 -0.394782,0.302179 -0.165712,0.194955 -0.268063,0.467891 -0.102351,0.272936 -0.12672,0.599485 z"
         style="line-height:1;text-align:start;text-anchor:start;fill:#000000;stroke:#000000;stroke-width:0.24954168"
         id="path4649"
         inkscape:connector-curvature="0" />
      <path
         d="m 43.65433,20.761556 h -2.704993 v 2.066517 h 2.563651 v 0.726206 h -2.563651 v 2.836587 h -0.887043 v -6.370137 h 3.592036 z"
         style="line-height:1;text-align:start;text-anchor:start;fill:#000000;stroke:#000000;stroke-width:0.24954168"
         id="path4651"
         inkscape:connector-curvature="0" />
      <path
         d="m 49.600441,23.905197 q 0,0.570242 -0.160837,1.04788 -0.160838,0.472765 -0.463017,0.813935 -0.30218,0.336296 -0.735953,0.526377 -0.433774,0.185207 -0.98452,0.185207 -0.526377,0 -0.945529,-0.160838 -0.414279,-0.165711 -0.70671,-0.482512 -0.287558,-0.316801 -0.443522,-0.784692 -0.151089,-0.46789 -0.151089,-1.077123 0,-0.570242 0.160837,-1.038133 0.160837,-0.472764 0.463017,-0.809061 0.302179,-0.34117 0.735953,-0.526377 0.433774,-0.19008 0.98452,-0.19008 0.526377,0 0.940655,0.165711 0.419152,0.160837 0.70671,0.477638 0.292432,0.311928 0.443522,0.779818 0.155963,0.467891 0.155963,1.07225 z m -0.867547,0.03899 q 0,-0.453269 -0.102351,-0.789566 -0.09748,-0.34117 -0.282684,-0.565368 -0.185207,-0.229071 -0.453269,-0.34117 -0.263189,-0.116973 -0.589738,-0.116973 -0.380161,0 -0.653097,0.15109 -0.268063,0.146216 -0.443522,0.394783 -0.170585,0.248567 -0.25344,0.579989 -0.07798,0.326549 -0.07798,0.687215 0,0.453269 0.09748,0.794439 0.102351,0.341171 0.287558,0.570242 0.185207,0.224198 0.448395,0.34117 0.263189,0.112099 0.594611,0.112099 0.380162,0 0.648224,-0.146216 0.272936,-0.151089 0.443521,-0.399656 0.175459,-0.248567 0.253441,-0.575116 0.08286,-0.331423 0.08286,-0.696962 z"
         style="line-height:1;text-align:start;text-anchor:start;fill:#000000;stroke:#000000;stroke-width:0.24954168"
         id="path4653"
         inkscape:connector-curvature="0" />
      <path
         d="m 54.771608,26.390866 h -0.760322 l -0.02924,-0.789565 q -0.219324,0.253441 -0.419152,0.424026 -0.194955,0.165711 -0.389909,0.268062 -0.194955,0.102351 -0.394783,0.141342 -0.194954,0.04387 -0.414278,0.04387 -0.755449,0 -1.140484,-0.443522 -0.385035,-0.443521 -0.385035,-1.340312 v -3.197253 h 0.848052 v 3.129019 q 0,1.125862 0.848052,1.125862 0.155963,0 0.302179,-0.04386 0.15109,-0.04874 0.311927,-0.160838 0.165712,-0.116972 0.350918,-0.311927 0.190081,-0.194954 0.424026,-0.49226 v -3.245992 h 0.848052 z"
         style="line-height:1;text-align:start;text-anchor:start;fill:#000000;stroke:#000000;stroke-width:0.24954168"
         id="path4655"
         inkscape:connector-curvature="0" />
      <path
         d="m 56.336119,21.497509 h 0.755449 l 0.03412,0.789566 q 0.214449,-0.253441 0.414278,-0.419152 0.199828,-0.170585 0.389909,-0.272936 0.194954,-0.102352 0.394782,-0.141342 0.199829,-0.04387 0.414279,-0.04387 0.755448,0 1.140483,0.448395 0.389909,0.443521 0.389909,1.340312 v 3.192379 h -0.848052 v -3.124145 q 0,-0.575116 -0.21445,-0.848052 -0.214449,-0.27781 -0.638475,-0.27781 -0.155964,0 -0.307054,0.04874 -0.146216,0.04386 -0.307053,0.160837 -0.160837,0.112099 -0.350918,0.307053 -0.185207,0.194955 -0.419152,0.487386 v 3.245992 h -0.848052 z"
         style="line-height:1;text-align:start;text-anchor:start;fill:#000000;stroke:#000000;stroke-width:0.24954168"
         id="path4657"
         inkscape:connector-curvature="0" />
      <path
         d="m 61.585267,24.046539 q 0,-0.623854 0.170585,-1.106367 0.170585,-0.487386 0.482512,-0.818808 0.316801,-0.336297 0.755449,-0.506882 0.443521,-0.175459 0.98452,-0.175459 0.233945,0 0.458143,0.02924 0.229072,0.02924 0.448395,0.0926 V 19.5041 h 0.852926 v 6.886766 h -0.760322 l -0.02924,-0.926033 q -0.355791,0.516629 -0.77007,0.765196 -0.414278,0.248567 -0.89679,0.248567 -0.419152,0 -0.740827,-0.175459 -0.316801,-0.175459 -0.531251,-0.49226 -0.209576,-0.321675 -0.316801,-0.77007 -0.107225,-0.448396 -0.107225,-0.994268 z m 0.867547,-0.05361 q 0,0.887043 0.258315,1.325691 0.263189,0.433773 0.740827,0.433773 0.321675,0 0.677467,-0.287557 0.360666,-0.287558 0.755448,-0.852926 v -2.27122 q -0.209576,-0.09748 -0.463017,-0.146216 -0.25344,-0.05361 -0.502007,-0.05361 -0.692089,0 -1.081998,0.448395 -0.385035,0.448396 -0.385035,1.403672 z"
         style="line-height:1;text-align:start;text-anchor:start;fill:#000000;stroke:#000000;stroke-width:0.24954168"
         id="path4659"
         inkscape:connector-curvature="0" />
      <path
         d="m 67.531377,21.497509 h 0.774944 l 0.02437,0.901665 q 0.433773,-0.521504 0.852925,-0.755449 0.424026,-0.233945 0.852926,-0.233945 0.760323,0 1.150231,0.49226 0.394783,0.49226 0.36554,1.462158 h -0.8578 q 0.01462,-0.643349 -0.19008,-0.930907 -0.199828,-0.292432 -0.589737,-0.292432 -0.170586,0 -0.346045,0.06336 -0.170585,0.05849 -0.355791,0.194955 -0.180333,0.131594 -0.385036,0.34117 -0.204702,0.209576 -0.438647,0.506882 v 3.14364 h -0.8578 z"
         style="line-height:1;text-align:start;text-anchor:start;fill:#000000;stroke:#000000;stroke-width:0.24954168"
         id="path4661"
         inkscape:connector-curvature="0" />
      <path
         d="m 77.181626,21.497509 -1.666861,4.376728 q -0.258314,0.667719 -0.536124,1.150231 -0.272937,0.482513 -0.599485,0.789566 -0.326549,0.311927 -0.716458,0.458143 -0.389909,0.146216 -0.872421,0.146216 -0.126721,0 -0.229072,-0.0049 -0.102351,-0.0049 -0.224197,-0.01462 v -0.77007 q 0.107225,0.01462 0.233945,0.02437 0.126721,0.01462 0.268062,0.01462 0.233946,0 0.433774,-0.06823 0.204702,-0.06823 0.385035,-0.224198 0.180333,-0.151089 0.346044,-0.394782 0.165712,-0.243694 0.321675,-0.589738 l -1.954418,-4.893357 h 0.965024 l 1.237961,3.236244 0.248567,0.760323 0.282684,-0.779818 1.145358,-3.216749 z"
         style="line-height:1;text-align:start;text-anchor:start;fill:#000000;stroke:#000000;stroke-width:0.24954168"
         id="path4663"
         inkscape:connector-curvature="0" />
    </g>
  </g>
</svg>
